/* XPM */
static char *pydosh[] = {
/* columns rows colors chars-per-pixel */
"32 32 237 2 ",
"   c #250903",
".  c #2B3F07",
"X  c #421609",
"o  c #7D1C0C",
"O  c #56230F",
"+  c #5A220F",
"@  c #453D04",
"#  c #52350F",
"$  c #4E2412",
"%  c #5F2711",
"&  c #6C2C01",
"*  c #76210F",
"=  c #7C200E",
"-  c #682E14",
";  c #742611",
":  c #7D2313",
">  c #782718",
",  c #742C18",
"<  c #7A2C19",
"1  c #60301A",
"2  c #7A311E",
"3  c #7D3321",
"4  c #0E4903",
"5  c #025304",
"6  c #015904",
"7  c #01560F",
"8  c #0F5C0C",
"9  c #074E17",
"0  c #045117",
"q  c #06571E",
"w  c #005D1A",
"e  c #115116",
"r  c #3B430D",
"t  c #215E0A",
"y  c #006706",
"u  c #00630D",
"i  c #086408",
"p  c #046C0B",
"a  c #02740C",
"s  c #027E0C",
"d  c #016212",
"f  c #03641A",
"g  c #166612",
"h  c #196514",
"j  c #176913",
"k  c #1B6C15",
"l  c #1D641D",
"z  c #067B16",
"x  c #04721A",
"c  c #216F19",
"v  c #25741C",
"b  c #015521",
"n  c #035C23",
"m  c #0A5D22",
"M  c #036426",
"N  c #00632C",
"B  c #006C2C",
"V  c #1E6827",
"C  c #116C2D",
"Z  c #007E26",
"A  c #00752B",
"S  c #18712F",
"D  c #147432",
"F  c #2C7A21",
"G  c #397F31",
"H  c #9E0202",
"J  c #920A05",
"K  c #9B0904",
"L  c #9D0E0C",
"P  c #85160B",
"I  c #8E1308",
"U  c #821A0B",
"Y  c #9A1700",
"T  c #92150A",
"R  c #941F0B",
"E  c #9D1610",
"W  c #9C1815",
"Q  c #A30000",
"!  c #AC0100",
"~  c #A30C0C",
"^  c #AA0B0C",
"/  c #B30100",
"(  c #BB0100",
")  c #B60803",
"_  c #B50E0C",
"`  c #BF0B0A",
"'  c #AF1105",
"]  c #A31F09",
"[  c #B81005",
"{  c #A31111",
"}  c #A61A1A",
"|  c #BC1818",
" . c #83210D",
".. c #8B240D",
"X. c #89290D",
"o. c #8A340E",
"O. c #92370C",
"+. c #872617",
"@. c #862F1E",
"#. c #96271F",
"$. c #80311E",
"%. c #A02209",
"&. c #AB2108",
"*. c #BB2E06",
"=. c #A3211F",
"-. c #823323",
";. c #8D3726",
":. c #953326",
">. c #943628",
",. c #993F36",
"<. c #AB2424",
"1. c #A62A28",
"2. c #BE2525",
"3. c #BB2B2A",
"4. c #AD332D",
"5. c #AB3232",
"6. c #A73F3C",
"7. c #C20100",
"8. c #CD0200",
"9. c #C40901",
"0. c #CB0901",
"q. c #D40200",
"w. c #DD0100",
"e. c #D50C00",
"r. c #DA0B00",
"t. c #C91302",
"y. c #DC1A00",
"u. c #C21211",
"i. c #E40200",
"p. c #EC0100",
"a. c #E10A00",
"s. c #EB0C00",
"d. c #F30100",
"f. c #FB0400",
"g. c #F60900",
"h. c #FC0B00",
"j. c #E31300",
"k. c #E41C01",
"l. c #EC1B00",
"z. c #F51600",
"x. c #FC1300",
"c. c #F41E02",
"v. c #FC1E00",
"b. c #DE3101",
"n. c #E82500",
"m. c #ED2E00",
"M. c #F32500",
"N. c #FD2101",
"B. c #F32D00",
"V. c #FC2C00",
"C. c #ED3300",
"Z. c #F43500",
"A. c #FE3300",
"S. c #F73E00",
"D. c #FE3C00",
"F. c #F73F1F",
"G. c #C42626",
"H. c #CC2A2A",
"J. c #C43534",
"K. c #BD5709",
"L. c #9F4335",
"P. c #954439",
"I. c #A04336",
"U. c #AB4036",
"Y. c #A3453F",
"T. c #B0483F",
"R. c #DA5B03",
"E. c #FE4300",
"W. c #FE4B00",
"Q. c #E05106",
"!. c #FE5300",
"~. c #FE5C00",
"^. c #F35718",
"/. c #DB7D04",
"(. c #FF6300",
"). c #FD6B00",
"_. c #FF7500",
"`. c #FF7A00",
"'. c #FF6D1B",
"]. c #F8673E",
"[. c #A24740",
"{. c #AC4744",
"}. c #BB4E46",
"|. c #C64945",
" X c #D34949",
".X c #CA5550",
"XX c #018204",
"oX c #01890F",
"OX c #049B09",
"+X c #00831C",
"@X c #008C1E",
"#X c #009617",
"$X c #009A16",
"%X c #01AE0A",
"&X c #01B30A",
"*X c #00A511",
"=X c #00AB11",
"-X c #008125",
";X c #258224",
":X c #438B37",
">X c #4D913D",
",X c #4D9A3A",
"<X c #57A044",
"1X c #5CA248",
"2X c #5FA848",
"3X c #64AF4C",
"4X c #66B14E",
"5X c #FE8500",
"6X c #FF8B01",
"7X c #FF8109",
"8X c #FF9703",
"9X c #FF911E",
"0X c #FFA605",
"qX c #FEAA00",
"wX c #FEBA02",
"eX c #FDBD12",
"rX c #FAAE2A",
"tX c #FEC301",
"yX c #FFC00E",
"uX c #FFD90C",
"iX c #FFC631",
"pX c #FFDC38",
"aX c #FFED25",
"sX c #FFE22A",
"dX c #FC8E53",
"fX c #FFF554",
"gX c #FDC87D",
"hX c #FFEE65",
"jX c #FEEB7C",
"kX c #FFC280",
"lX c #FFEC92",
"zX c #FFFA9E",
"xX c #FFFFC3",
"cX c #FFF1D7",
"vX c #FFFCEC",
"bX c #FFFFF1",
"nX c None",
/* pixels */
"nXnXnX5 h c c h 8 8 nXnXnXnXnXnXnXnXnXnXnXnXnXnXnXnXnXnXnXnXnXnX",
"nXnX6 f D S C m 0 l v nXnXnXnXnXnXnXnXnXnXnXnXnXnXnXnXnXnXnXnXnX",
"nXnXnXy x m N B N q :XF nXnXnXnXnXnXnXnXnXnXnXnXnXnXnXnXnXnXnXnX",
"nXnXnX6 XXOXz M b N V 3XF nXnXnXnXnXnXnXnXnXnXnXnXnXnXnXnXnXnXnX",
"nXnXnXnXy *X&XOXp M b G 4XF nXnXnXnX- $ 1 nXnXnXnXnXnXnXnXnXnXnX",
"nXnXnXnX6 -X#X=X&XOXd 9 >X4Xk nXnXnXO   nXnXnXnXnXnXnXnXnXnXnXnX",
"nXnXnXnX5 f Z @X#X=X%Xa e 1X,XnXnX- X nXnXnXnXnXnXnXnXnXnXnXnXnX",
"nXnXnXnXnX5 w A -X@X$X*XXXl <Xj nX% nXnXnXnXnXnXnXnXnXnXnXnXnXnX",
"nXnXnXnXnXnX5 w B A Z @X$XoX;Xj # + nXnXnXnXnXnXnXnXnXnXnXnXnXnX",
"nXnXnXnXnXnXnX5 7 w w d u i t r # > :.>.;.-.nXnXnXnXnXnXnXnXnXnX",
"nXnXnXnXnXnXnXnXnX4 . @ & Y [ _ * E | 2.J.|.}.I.$.nXnXnXnXnXnXnX",
"nXnXnXnXnXnXnXnXnXo.K.Q.k.a.8./ U / 7.7.` u.H. X.XL.nXnXnXnXnXnX",
"nXnXnXnXnXnXnXnXO./.eXrX^.l.9.H ) w.i.i.r.e.0.` G. XT.< nXnXnXnX",
"nXnXnXnXnXnXnXX.R.wXsXjXgXdX].F.N.N.N.V.Z.C.k.8.( _ J.6.nXnXnXnX",
"nXnXnXnXnXnXnX*.).tXaXzXbXvXcXkX'.W.!.~.~.W.c.q.7./ ^ 3.>.nXnXnX",
"nXnXnXnXnXnX..b.).qXuXfXxXbXbXlX9X).(.~.~.E.z.i.8.( ! ^ 4.< nXnX",
"nXnXnXnXnXnX%.C.~.5X0XeXpXhXhXiX7X).~.!.W.A.h.p.q.7.! Q <.@.nXnX",
"nXnXnXnXnXnX&.C.!.).`.6X8X0X0X6X).(.!.W.D.N.f.d.w.7.! Q ^ +.nXnX",
"nXnXnXnXnXnX&.B.W.~.(.).).`._.).(.!.!.D.V.x.f.d.w.7./ Q H U nXnX",
"nXnXnXnXnXnX%.n.S.W.~.~.~.(.~.~.~.!.E.A.v.h.f.p.w.7.! Q H U nXnX",
"nXnXnXnXnXnXR y.m.E.W.!.!.~.!.!.W.E.A.N.x.f.f.p.q.( ! Q J o nXnX",
"nXnXnXnXnXnX .t.k.B.Z.E.E.W.W.E.D.A.N.x.h.f.p.w.8./ Q H J nXnXnX",
"nXnXnXnXnXnX* ' e.k.M.V.A.A.A.A.N.v.x.h.f.p.i.q.( ! Q H P nXnXnX",
"nXnXnXnXnXnXnXT 9.e.j.l.c.v.M.N.x.x.g.d.p.w.8.( ! Q Q L : nXnXnX",
"nXnXnXnXnXnXnX= ! ` 0.e.a.s.s.s.s.p.i.i.q.8.( / Q Q ~ #.nXnXnXnX",
"nXnXnXnXnXnXnXnXI / ( 7.8.8.q.q.q.q.8.7.( / ! Q Q H 1.-.nXnXnXnX",
"nXnXnXnXnXnXnXnX* K ! ! / ( ( ( ( ( ( ! ! Q Q H H <.,.nXnXnXnXnX",
"nXnXnXnXnXnXnXnXnXo Q Q Q ! ! ! ! ! ! Q Q Q H Q 1.[.3 nXnXnXnXnX",
"nXnXnXnXnXnXnXnXnXnXU H Q Q Q Q Q Q H H H H { 5.[.3 nXnXnXnXnXnX",
"nXnXnXnXnXnXnXnXnXnXnXo J H Q Q H H H ~ } 5.{.P.2 nXnXnXnXnXnXnX",
"nXnXnXnXnXnXnXnXnXnXnXnX* U T W =.1.5.Y.[.P.-.nXnXnXnXnXnXnXnXnX",
"nXnXnXnXnXnXnXnXnXnXnXnXnXnX; > -.-.-.2 , nXnXnXnXnXnXnXnXnXnXnX"
};
